<mxfile host="app.diagrams.net" agent="Mozilla/5.0 (Windows NT 10.0; Win64; x64) AppleWebKit/537.36 (KHTML, like Gecko) Chrome/131.0.0.0 Safari/537.36 Edg/131.0.0.0" version="26.0.1">
  <diagram name="Page-1" id="0bPJit8824_ZcW1owXFy">
    <mxGraphModel dx="899" dy="605" grid="1" gridSize="10" guides="1" tooltips="1" connect="1" arrows="1" fold="1" page="1" pageScale="1" pageWidth="850" pageHeight="1100" math="0" shadow="0">
      <root>
        <mxCell id="0" />
        <mxCell id="1" parent="0" />
        <mxCell id="kJteZEEqS2UsFq0jqfke-16" value="" style="rounded=0;whiteSpace=wrap;html=1;" vertex="1" parent="1">
          <mxGeometry x="40" y="100" width="1160" height="780" as="geometry" />
        </mxCell>
        <mxCell id="kJteZEEqS2UsFq0jqfke-11" value="" style="rounded=0;whiteSpace=wrap;html=1;" vertex="1" parent="1">
          <mxGeometry x="250" y="210" width="780" height="570" as="geometry" />
        </mxCell>
        <mxCell id="ieM8UAY_hj6F3rj9aYo2-12" value="Клиент" style="shape=umlActor;verticalLabelPosition=bottom;verticalAlign=top;html=1;outlineConnect=0;fontFamily=Times New Roman;fontSize=12;" parent="1" vertex="1">
          <mxGeometry x="180" y="415" width="30" height="60" as="geometry" />
        </mxCell>
        <mxCell id="ieM8UAY_hj6F3rj9aYo2-13" value="Администратор" style="shape=umlActor;verticalLabelPosition=bottom;verticalAlign=top;html=1;outlineConnect=0;fontFamily=Times New Roman;fontSize=12;" parent="1" vertex="1">
          <mxGeometry x="1070" y="490" width="30" height="60" as="geometry" />
        </mxCell>
        <mxCell id="ieM8UAY_hj6F3rj9aYo2-14" value="Регистрация" style="ellipse;whiteSpace=wrap;html=1;" parent="1" vertex="1">
          <mxGeometry x="450" y="650" width="100" height="60" as="geometry" />
        </mxCell>
        <mxCell id="ieM8UAY_hj6F3rj9aYo2-15" value="Гость" style="shape=umlActor;verticalLabelPosition=bottom;verticalAlign=top;html=1;outlineConnect=0;fontFamily=Times New Roman;fontSize=12;" parent="1" vertex="1">
          <mxGeometry x="180" y="650" width="30" height="60" as="geometry" />
        </mxCell>
        <mxCell id="ieM8UAY_hj6F3rj9aYo2-16" value="Аутентификация" style="ellipse;whiteSpace=wrap;html=1;" parent="1" vertex="1">
          <mxGeometry x="560" y="481" width="100" height="60" as="geometry" />
        </mxCell>
        <mxCell id="ieM8UAY_hj6F3rj9aYo2-17" value="" style="endArrow=none;html=1;rounded=0;exitX=1;exitY=0.3333333333333333;exitDx=0;exitDy=0;exitPerimeter=0;entryX=0;entryY=0.5;entryDx=0;entryDy=0;" parent="1" source="ieM8UAY_hj6F3rj9aYo2-12" target="ieM8UAY_hj6F3rj9aYo2-16" edge="1">
          <mxGeometry width="50" height="50" relative="1" as="geometry">
            <mxPoint x="630" y="710" as="sourcePoint" />
            <mxPoint x="680" y="660" as="targetPoint" />
          </mxGeometry>
        </mxCell>
        <mxCell id="ieM8UAY_hj6F3rj9aYo2-18" value="" style="endArrow=none;html=1;rounded=0;entryX=1;entryY=0.5;entryDx=0;entryDy=0;exitX=0;exitY=0.3333333333333333;exitDx=0;exitDy=0;exitPerimeter=0;" parent="1" source="ieM8UAY_hj6F3rj9aYo2-13" target="ieM8UAY_hj6F3rj9aYo2-16" edge="1">
          <mxGeometry width="50" height="50" relative="1" as="geometry">
            <mxPoint x="630" y="710" as="sourcePoint" />
            <mxPoint x="680" y="660" as="targetPoint" />
          </mxGeometry>
        </mxCell>
        <mxCell id="ieM8UAY_hj6F3rj9aYo2-19" value="" style="endArrow=none;html=1;rounded=0;exitX=1;exitY=0.3333333333333333;exitDx=0;exitDy=0;exitPerimeter=0;entryX=0;entryY=0.5;entryDx=0;entryDy=0;" parent="1" source="ieM8UAY_hj6F3rj9aYo2-15" target="ieM8UAY_hj6F3rj9aYo2-14" edge="1">
          <mxGeometry width="50" height="50" relative="1" as="geometry">
            <mxPoint x="621" y="780" as="sourcePoint" />
            <mxPoint x="671" y="730" as="targetPoint" />
          </mxGeometry>
        </mxCell>
        <mxCell id="ieM8UAY_hj6F3rj9aYo2-20" value="Работа с типами курсов&amp;nbsp;" style="ellipse;whiteSpace=wrap;html=1;" parent="1" vertex="1">
          <mxGeometry x="740" y="625" width="140" height="70" as="geometry" />
        </mxCell>
        <mxCell id="ieM8UAY_hj6F3rj9aYo2-21" value="Просмотр доступных для записи курсов" style="ellipse;whiteSpace=wrap;html=1;" parent="1" vertex="1">
          <mxGeometry x="310" y="330" width="140" height="70" as="geometry" />
        </mxCell>
        <mxCell id="ieM8UAY_hj6F3rj9aYo2-23" value="Выбор почты для предоставление уведомления" style="ellipse;whiteSpace=wrap;html=1;" parent="1" vertex="1">
          <mxGeometry x="280" y="220" width="160" height="80" as="geometry" />
        </mxCell>
        <mxCell id="ieM8UAY_hj6F3rj9aYo2-24" value="Запись на курс" style="ellipse;whiteSpace=wrap;html=1;" parent="1" vertex="1">
          <mxGeometry x="430" y="270" width="120" height="60" as="geometry" />
        </mxCell>
        <mxCell id="ieM8UAY_hj6F3rj9aYo2-25" value="Просмотр курсов и их описания" style="ellipse;whiteSpace=wrap;html=1;" parent="1" vertex="1">
          <mxGeometry x="495" y="560" width="140" height="70" as="geometry" />
        </mxCell>
        <mxCell id="ieM8UAY_hj6F3rj9aYo2-26" value="" style="endArrow=none;html=1;rounded=0;exitX=1;exitY=0.3333333333333333;exitDx=0;exitDy=0;exitPerimeter=0;entryX=0;entryY=0.5;entryDx=0;entryDy=0;" parent="1" source="ieM8UAY_hj6F3rj9aYo2-12" target="ieM8UAY_hj6F3rj9aYo2-25" edge="1">
          <mxGeometry width="50" height="50" relative="1" as="geometry">
            <mxPoint x="280" y="520" as="sourcePoint" />
            <mxPoint x="570" y="521" as="targetPoint" />
          </mxGeometry>
        </mxCell>
        <mxCell id="ieM8UAY_hj6F3rj9aYo2-27" value="" style="endArrow=none;html=1;rounded=0;entryX=1;entryY=0.5;entryDx=0;entryDy=0;exitX=0;exitY=0.3333333333333333;exitDx=0;exitDy=0;exitPerimeter=0;" parent="1" source="ieM8UAY_hj6F3rj9aYo2-13" target="ieM8UAY_hj6F3rj9aYo2-25" edge="1">
          <mxGeometry width="50" height="50" relative="1" as="geometry">
            <mxPoint x="978" y="509" as="sourcePoint" />
            <mxPoint x="677.9999999999995" y="614" as="targetPoint" />
          </mxGeometry>
        </mxCell>
        <mxCell id="ieM8UAY_hj6F3rj9aYo2-28" value="" style="endArrow=none;html=1;rounded=0;exitX=1;exitY=0.3333333333333333;exitDx=0;exitDy=0;exitPerimeter=0;entryX=0;entryY=0.5;entryDx=0;entryDy=0;" parent="1" source="ieM8UAY_hj6F3rj9aYo2-15" target="ieM8UAY_hj6F3rj9aYo2-25" edge="1">
          <mxGeometry width="50" height="50" relative="1" as="geometry">
            <mxPoint x="630" y="900" as="sourcePoint" />
            <mxPoint x="470" y="860" as="targetPoint" />
          </mxGeometry>
        </mxCell>
        <mxCell id="ieM8UAY_hj6F3rj9aYo2-29" value="" style="endArrow=none;html=1;rounded=0;entryX=1;entryY=0;entryDx=0;entryDy=0;" parent="1" target="ieM8UAY_hj6F3rj9aYo2-20" edge="1">
          <mxGeometry width="50" height="50" relative="1" as="geometry">
            <mxPoint x="1070" y="510" as="sourcePoint" />
            <mxPoint x="680" y="590" as="targetPoint" />
          </mxGeometry>
        </mxCell>
        <mxCell id="ieM8UAY_hj6F3rj9aYo2-30" value="" style="endArrow=none;html=1;rounded=0;entryX=0;entryY=1;entryDx=0;entryDy=0;exitX=1;exitY=0.3333333333333333;exitDx=0;exitDy=0;exitPerimeter=0;" parent="1" source="ieM8UAY_hj6F3rj9aYo2-12" target="ieM8UAY_hj6F3rj9aYo2-21" edge="1">
          <mxGeometry width="50" height="50" relative="1" as="geometry">
            <mxPoint x="280" y="510" as="sourcePoint" />
            <mxPoint x="570" y="521" as="targetPoint" />
          </mxGeometry>
        </mxCell>
        <mxCell id="ieM8UAY_hj6F3rj9aYo2-31" value="Работа с пользователями" style="ellipse;whiteSpace=wrap;html=1;" parent="1" vertex="1">
          <mxGeometry x="770" y="330" width="140" height="70" as="geometry" />
        </mxCell>
        <mxCell id="ieM8UAY_hj6F3rj9aYo2-34" value="" style="endArrow=classic;dashed=1;html=1;rounded=0;entryX=0.5;entryY=1;entryDx=0;entryDy=0;exitX=0;exitY=0.5;exitDx=0;exitDy=0;startArrow=none;startFill=0;endFill=1;" parent="1" source="ieM8UAY_hj6F3rj9aYo2-24" target="ieM8UAY_hj6F3rj9aYo2-23" edge="1">
          <mxGeometry width="50" height="50" relative="1" as="geometry">
            <mxPoint x="486" y="370" as="sourcePoint" />
            <mxPoint x="440" y="331" as="targetPoint" />
          </mxGeometry>
        </mxCell>
        <mxCell id="ieM8UAY_hj6F3rj9aYo2-35" value="&amp;lt;&amp;lt;include&amp;gt;&amp;gt;" style="edgeLabel;html=1;align=center;verticalAlign=middle;resizable=0;points=[];" parent="ieM8UAY_hj6F3rj9aYo2-34" connectable="0" vertex="1">
          <mxGeometry x="-0.0165" y="1" relative="1" as="geometry">
            <mxPoint x="-1" as="offset" />
          </mxGeometry>
        </mxCell>
        <mxCell id="ieM8UAY_hj6F3rj9aYo2-36" value="" style="endArrow=classic;dashed=1;html=1;rounded=0;entryX=0;entryY=1;entryDx=0;entryDy=0;exitX=1;exitY=0;exitDx=0;exitDy=0;startArrow=none;startFill=0;endFill=1;" parent="1" source="ieM8UAY_hj6F3rj9aYo2-21" target="ieM8UAY_hj6F3rj9aYo2-24" edge="1">
          <mxGeometry width="50" height="50" relative="1" as="geometry">
            <mxPoint x="411" y="400" as="sourcePoint" />
            <mxPoint x="365" y="361" as="targetPoint" />
          </mxGeometry>
        </mxCell>
        <mxCell id="ieM8UAY_hj6F3rj9aYo2-37" value="&amp;lt;&amp;lt;extend&amp;gt;&amp;gt;" style="edgeLabel;html=1;align=center;verticalAlign=middle;resizable=0;points=[];" parent="ieM8UAY_hj6F3rj9aYo2-36" connectable="0" vertex="1">
          <mxGeometry x="-0.0165" y="1" relative="1" as="geometry">
            <mxPoint as="offset" />
          </mxGeometry>
        </mxCell>
        <mxCell id="ieM8UAY_hj6F3rj9aYo2-38" value="" style="endArrow=none;html=1;rounded=0;entryX=1;entryY=1;entryDx=0;entryDy=0;exitX=0;exitY=0.3333333333333333;exitDx=0;exitDy=0;exitPerimeter=0;" parent="1" source="ieM8UAY_hj6F3rj9aYo2-13" target="ieM8UAY_hj6F3rj9aYo2-31" edge="1">
          <mxGeometry width="50" height="50" relative="1" as="geometry">
            <mxPoint x="980" y="510" as="sourcePoint" />
            <mxPoint x="670" y="521" as="targetPoint" />
          </mxGeometry>
        </mxCell>
        <mxCell id="ieM8UAY_hj6F3rj9aYo2-39" value="Поиск по фильтрам и названию" style="ellipse;whiteSpace=wrap;html=1;" parent="1" vertex="1">
          <mxGeometry x="570" y="690" width="140" height="70" as="geometry" />
        </mxCell>
        <mxCell id="ieM8UAY_hj6F3rj9aYo2-40" value="" style="endArrow=classic;dashed=1;html=1;rounded=0;entryX=0.5;entryY=0;entryDx=0;entryDy=0;startArrow=none;startFill=0;endFill=1;exitX=1;exitY=1;exitDx=0;exitDy=0;" parent="1" source="ieM8UAY_hj6F3rj9aYo2-25" target="ieM8UAY_hj6F3rj9aYo2-39" edge="1">
          <mxGeometry width="50" height="50" relative="1" as="geometry">
            <mxPoint x="565" y="630" as="sourcePoint" />
            <mxPoint x="460" y="660" as="targetPoint" />
          </mxGeometry>
        </mxCell>
        <mxCell id="ieM8UAY_hj6F3rj9aYo2-41" value="&amp;lt;&amp;lt;extend&amp;gt;&amp;gt;" style="edgeLabel;html=1;align=center;verticalAlign=middle;resizable=0;points=[];" parent="ieM8UAY_hj6F3rj9aYo2-40" connectable="0" vertex="1">
          <mxGeometry x="-0.0165" y="1" relative="1" as="geometry">
            <mxPoint as="offset" />
          </mxGeometry>
        </mxCell>
        <mxCell id="ieM8UAY_hj6F3rj9aYo2-43" value="Изменение существующего курса" style="ellipse;whiteSpace=wrap;html=1;" parent="1" vertex="1">
          <mxGeometry x="870" y="260" width="140" height="70" as="geometry" />
        </mxCell>
        <mxCell id="ieM8UAY_hj6F3rj9aYo2-44" value="" style="endArrow=none;html=1;rounded=0;entryX=0.5;entryY=1;entryDx=0;entryDy=0;exitX=0;exitY=0.3333333333333333;exitDx=0;exitDy=0;exitPerimeter=0;" parent="1" source="ieM8UAY_hj6F3rj9aYo2-13" target="ieM8UAY_hj6F3rj9aYo2-43" edge="1">
          <mxGeometry width="50" height="50" relative="1" as="geometry">
            <mxPoint x="1150" y="510" as="sourcePoint" />
            <mxPoint x="879" y="440" as="targetPoint" />
          </mxGeometry>
        </mxCell>
        <mxCell id="ieM8UAY_hj6F3rj9aYo2-46" value="Добавление курса" style="ellipse;whiteSpace=wrap;html=1;" parent="1" vertex="1">
          <mxGeometry x="720" y="545" width="140" height="70" as="geometry" />
        </mxCell>
        <mxCell id="ieM8UAY_hj6F3rj9aYo2-47" value="" style="endArrow=none;html=1;rounded=0;entryX=1;entryY=0;entryDx=0;entryDy=0;exitX=0;exitY=0.3333333333333333;exitDx=0;exitDy=0;exitPerimeter=0;" parent="1" target="ieM8UAY_hj6F3rj9aYo2-46" edge="1" source="ieM8UAY_hj6F3rj9aYo2-13">
          <mxGeometry width="50" height="50" relative="1" as="geometry">
            <mxPoint x="1000" y="510" as="sourcePoint" />
            <mxPoint x="950" y="461" as="targetPoint" />
          </mxGeometry>
        </mxCell>
        <mxCell id="ieM8UAY_hj6F3rj9aYo2-48" value="Удаление курса" style="ellipse;whiteSpace=wrap;html=1;" parent="1" vertex="1">
          <mxGeometry x="750" y="420" width="140" height="70" as="geometry" />
        </mxCell>
        <mxCell id="ieM8UAY_hj6F3rj9aYo2-49" value="" style="endArrow=none;html=1;rounded=0;entryX=1;entryY=0.5;entryDx=0;entryDy=0;exitX=0;exitY=0.3333333333333333;exitDx=0;exitDy=0;exitPerimeter=0;" parent="1" source="ieM8UAY_hj6F3rj9aYo2-13" target="ieM8UAY_hj6F3rj9aYo2-48" edge="1">
          <mxGeometry width="50" height="50" relative="1" as="geometry">
            <mxPoint x="980" y="350" as="sourcePoint" />
            <mxPoint x="930" y="301" as="targetPoint" />
          </mxGeometry>
        </mxCell>
        <mxCell id="ieM8UAY_hj6F3rj9aYo2-50" value="&lt;div&gt;&lt;span style=&quot;background-color: transparent; color: light-dark(rgb(0, 0, 0), rgb(255, 255, 255));&quot;&gt;Просмотр профиля с текущими и оконченными курсами&lt;/span&gt;&lt;/div&gt;" style="ellipse;whiteSpace=wrap;html=1;" parent="1" vertex="1">
          <mxGeometry x="350" y="410" width="170" height="90" as="geometry" />
        </mxCell>
        <mxCell id="ieM8UAY_hj6F3rj9aYo2-51" value="" style="endArrow=none;html=1;rounded=0;entryX=0;entryY=0.5;entryDx=0;entryDy=0;exitX=1;exitY=0.3333333333333333;exitDx=0;exitDy=0;exitPerimeter=0;" parent="1" source="ieM8UAY_hj6F3rj9aYo2-12" target="ieM8UAY_hj6F3rj9aYo2-50" edge="1">
          <mxGeometry width="50" height="50" relative="1" as="geometry">
            <mxPoint x="210" y="530" as="sourcePoint" />
            <mxPoint x="575" y="301" as="targetPoint" />
          </mxGeometry>
        </mxCell>
        <mxCell id="kJteZEEqS2UsFq0jqfke-1" value="Прохождение курса" style="ellipse;whiteSpace=wrap;html=1;" vertex="1" parent="1">
          <mxGeometry x="470" y="360" width="120" height="60" as="geometry" />
        </mxCell>
        <mxCell id="kJteZEEqS2UsFq0jqfke-2" value="" style="endArrow=classic;dashed=1;html=1;rounded=0;entryX=0.5;entryY=0;entryDx=0;entryDy=0;exitX=0.5;exitY=1;exitDx=0;exitDy=0;startArrow=none;startFill=0;endFill=1;" edge="1" parent="1" target="kJteZEEqS2UsFq0jqfke-1" source="ieM8UAY_hj6F3rj9aYo2-24">
          <mxGeometry width="50" height="50" relative="1" as="geometry">
            <mxPoint x="537" y="270" as="sourcePoint" />
            <mxPoint x="498" y="301" as="targetPoint" />
          </mxGeometry>
        </mxCell>
        <mxCell id="kJteZEEqS2UsFq0jqfke-3" value="&amp;lt;&amp;lt;extend&amp;gt;&amp;gt;" style="edgeLabel;html=1;align=center;verticalAlign=middle;resizable=0;points=[];" connectable="0" vertex="1" parent="kJteZEEqS2UsFq0jqfke-2">
          <mxGeometry x="-0.0165" y="1" relative="1" as="geometry">
            <mxPoint as="offset" />
          </mxGeometry>
        </mxCell>
        <mxCell id="kJteZEEqS2UsFq0jqfke-5" value="" style="endArrow=classic;dashed=1;html=1;rounded=0;entryX=0;entryY=0;entryDx=0;entryDy=0;exitX=1;exitY=1;exitDx=0;exitDy=0;startArrow=none;startFill=0;endFill=1;" edge="1" parent="1" source="kJteZEEqS2UsFq0jqfke-27" target="kJteZEEqS2UsFq0jqfke-10">
          <mxGeometry width="50" height="50" relative="1" as="geometry">
            <mxPoint x="634" y="410" as="sourcePoint" />
            <mxPoint x="634" y="440" as="targetPoint" />
          </mxGeometry>
        </mxCell>
        <mxCell id="kJteZEEqS2UsFq0jqfke-7" value="" style="endArrow=classic;dashed=1;html=1;rounded=0;exitX=1;exitY=0;exitDx=0;exitDy=0;startArrow=none;startFill=0;endFill=1;entryX=0;entryY=1;entryDx=0;entryDy=0;" edge="1" parent="1" source="kJteZEEqS2UsFq0jqfke-1" target="kJteZEEqS2UsFq0jqfke-9">
          <mxGeometry width="50" height="50" relative="1" as="geometry">
            <mxPoint x="585" y="340" as="sourcePoint" />
            <mxPoint x="650" y="310" as="targetPoint" />
          </mxGeometry>
        </mxCell>
        <mxCell id="kJteZEEqS2UsFq0jqfke-8" value="&amp;lt;&amp;lt;include&amp;gt;&amp;gt;" style="edgeLabel;html=1;align=center;verticalAlign=middle;resizable=0;points=[];" connectable="0" vertex="1" parent="kJteZEEqS2UsFq0jqfke-7">
          <mxGeometry x="-0.0165" y="1" relative="1" as="geometry">
            <mxPoint as="offset" />
          </mxGeometry>
        </mxCell>
        <mxCell id="kJteZEEqS2UsFq0jqfke-9" value="Просмотр видеоматериалов" style="ellipse;whiteSpace=wrap;html=1;" vertex="1" parent="1">
          <mxGeometry x="580" y="290" width="140" height="70" as="geometry" />
        </mxCell>
        <mxCell id="kJteZEEqS2UsFq0jqfke-10" value="Прохождение теста" style="ellipse;whiteSpace=wrap;html=1;" vertex="1" parent="1">
          <mxGeometry x="600" y="410" width="140" height="70" as="geometry" />
        </mxCell>
        <mxCell id="kJteZEEqS2UsFq0jqfke-17" value="1" style="ellipse;whiteSpace=wrap;html=1;aspect=fixed;" vertex="1" parent="1">
          <mxGeometry x="460" y="640" width="30" height="30" as="geometry" />
        </mxCell>
        <mxCell id="kJteZEEqS2UsFq0jqfke-18" value="2" style="ellipse;whiteSpace=wrap;html=1;aspect=fixed;" vertex="1" parent="1">
          <mxGeometry x="570" y="470" width="30" height="30" as="geometry" />
        </mxCell>
        <mxCell id="kJteZEEqS2UsFq0jqfke-19" value="3" style="ellipse;whiteSpace=wrap;html=1;aspect=fixed;" vertex="1" parent="1">
          <mxGeometry x="510" y="550" width="30" height="30" as="geometry" />
        </mxCell>
        <mxCell id="kJteZEEqS2UsFq0jqfke-20" value="5" style="ellipse;whiteSpace=wrap;html=1;aspect=fixed;" vertex="1" parent="1">
          <mxGeometry x="320" y="320" width="30" height="30" as="geometry" />
        </mxCell>
        <mxCell id="kJteZEEqS2UsFq0jqfke-21" value="6" style="ellipse;whiteSpace=wrap;html=1;aspect=fixed;" vertex="1" parent="1">
          <mxGeometry x="440" y="260" width="30" height="30" as="geometry" />
        </mxCell>
        <mxCell id="kJteZEEqS2UsFq0jqfke-22" value="7" style="ellipse;whiteSpace=wrap;html=1;aspect=fixed;" vertex="1" parent="1">
          <mxGeometry x="300" y="210" width="30" height="30" as="geometry" />
        </mxCell>
        <mxCell id="kJteZEEqS2UsFq0jqfke-23" value="8" style="ellipse;whiteSpace=wrap;html=1;aspect=fixed;" vertex="1" parent="1">
          <mxGeometry x="380" y="400" width="30" height="30" as="geometry" />
        </mxCell>
        <mxCell id="kJteZEEqS2UsFq0jqfke-25" value="9" style="ellipse;whiteSpace=wrap;html=1;aspect=fixed;" vertex="1" parent="1">
          <mxGeometry x="475" y="350" width="30" height="30" as="geometry" />
        </mxCell>
        <mxCell id="kJteZEEqS2UsFq0jqfke-26" value="10" style="ellipse;whiteSpace=wrap;html=1;aspect=fixed;" vertex="1" parent="1">
          <mxGeometry x="595" y="280" width="30" height="30" as="geometry" />
        </mxCell>
        <mxCell id="kJteZEEqS2UsFq0jqfke-28" value="" style="endArrow=classic;dashed=1;html=1;rounded=0;entryX=0;entryY=0;entryDx=0;entryDy=0;exitX=1;exitY=1;exitDx=0;exitDy=0;startArrow=none;startFill=0;endFill=1;" edge="1" parent="1" source="kJteZEEqS2UsFq0jqfke-1" target="kJteZEEqS2UsFq0jqfke-10">
          <mxGeometry width="50" height="50" relative="1" as="geometry">
            <mxPoint x="572" y="411" as="sourcePoint" />
            <mxPoint x="618" y="429" as="targetPoint" />
          </mxGeometry>
        </mxCell>
        <mxCell id="kJteZEEqS2UsFq0jqfke-29" value="&amp;lt;&amp;lt;include&amp;gt;&amp;gt;" style="edgeLabel;html=1;align=center;verticalAlign=middle;resizable=0;points=[];" connectable="0" vertex="1" parent="kJteZEEqS2UsFq0jqfke-28">
          <mxGeometry x="-0.0165" y="1" relative="1" as="geometry">
            <mxPoint as="offset" />
          </mxGeometry>
        </mxCell>
        <mxCell id="kJteZEEqS2UsFq0jqfke-27" value="11" style="ellipse;whiteSpace=wrap;html=1;aspect=fixed;" vertex="1" parent="1">
          <mxGeometry x="630" y="400" width="30" height="30" as="geometry" />
        </mxCell>
        <mxCell id="kJteZEEqS2UsFq0jqfke-30" value="4" style="ellipse;whiteSpace=wrap;html=1;aspect=fixed;" vertex="1" parent="1">
          <mxGeometry x="580" y="680" width="30" height="30" as="geometry" />
        </mxCell>
        <mxCell id="kJteZEEqS2UsFq0jqfke-31" value="12" style="ellipse;whiteSpace=wrap;html=1;aspect=fixed;" vertex="1" parent="1">
          <mxGeometry x="880" y="250" width="30" height="30" as="geometry" />
        </mxCell>
        <mxCell id="kJteZEEqS2UsFq0jqfke-32" value="13&lt;span style=&quot;color: rgba(0, 0, 0, 0); font-family: monospace; font-size: 0px; text-align: start; text-wrap-mode: nowrap;&quot;&gt;%3CmxGraphModel%3E%3Croot%3E%3CmxCell%20id%3D%220%22%2F%3E%3CmxCell%20id%3D%221%22%20parent%3D%220%22%2F%3E%3CmxCell%20id%3D%222%22%20value%3D%224%22%20style%3D%22ellipse%3BwhiteSpace%3Dwrap%3Bhtml%3D1%3Baspect%3Dfixed%3B%22%20vertex%3D%221%22%20parent%3D%221%22%3E%3CmxGeometry%20x%3D%22580%22%20y%3D%22680%22%20width%3D%2230%22%20height%3D%2230%22%20as%3D%22geometry%22%2F%3E%3C%2FmxCell%3E%3C%2Froot%3E%3C%2FmxGraphModel%3E&lt;/span&gt;" style="ellipse;whiteSpace=wrap;html=1;aspect=fixed;" vertex="1" parent="1">
          <mxGeometry x="780" y="320" width="30" height="30" as="geometry" />
        </mxCell>
        <mxCell id="kJteZEEqS2UsFq0jqfke-33" value="14" style="ellipse;whiteSpace=wrap;html=1;aspect=fixed;" vertex="1" parent="1">
          <mxGeometry x="770" y="410" width="30" height="30" as="geometry" />
        </mxCell>
        <mxCell id="kJteZEEqS2UsFq0jqfke-34" value="15" style="ellipse;whiteSpace=wrap;html=1;aspect=fixed;" vertex="1" parent="1">
          <mxGeometry x="740" y="530" width="30" height="30" as="geometry" />
        </mxCell>
        <mxCell id="kJteZEEqS2UsFq0jqfke-35" value="16" style="ellipse;whiteSpace=wrap;html=1;aspect=fixed;" vertex="1" parent="1">
          <mxGeometry x="750" y="615" width="30" height="30" as="geometry" />
        </mxCell>
        <mxCell id="kJteZEEqS2UsFq0jqfke-36" value="Разработка тестов и загрузка видеоматериалов" style="ellipse;whiteSpace=wrap;html=1;" vertex="1" parent="1">
          <mxGeometry x="850" y="690" width="160" height="70" as="geometry" />
        </mxCell>
        <mxCell id="kJteZEEqS2UsFq0jqfke-37" value="17" style="ellipse;whiteSpace=wrap;html=1;aspect=fixed;" vertex="1" parent="1">
          <mxGeometry x="860" y="680" width="30" height="30" as="geometry" />
        </mxCell>
        <mxCell id="kJteZEEqS2UsFq0jqfke-40" value="" style="endArrow=none;html=1;rounded=0;entryX=0;entryY=0.3333333333333333;entryDx=0;entryDy=0;entryPerimeter=0;exitX=0.5;exitY=0;exitDx=0;exitDy=0;" edge="1" parent="1" source="kJteZEEqS2UsFq0jqfke-36" target="ieM8UAY_hj6F3rj9aYo2-13">
          <mxGeometry width="50" height="50" relative="1" as="geometry">
            <mxPoint x="910" y="640" as="sourcePoint" />
            <mxPoint x="960" y="590" as="targetPoint" />
          </mxGeometry>
        </mxCell>
      </root>
    </mxGraphModel>
  </diagram>
</mxfile>
